<svg width="852" height="300" viewBox="0 0 852 300" fill="none" xmlns="http://www.w3.org/2000/svg">
<path d="M122.686 239.684C112.536 239.684 104.309 249.899 104.309 262.5H189.552C189.552 249.899 181.324 239.684 171.174 239.684H122.686Z" fill="#FF5F46"/>
<path d="M269.421 121.181C251.288 150.312 224.064 190.399 211.907 200.685C199.751 210.971 181.723 229.514 139.936 229.514C110.661 229.513 85.4795 210.711 74.3027 183.747C74.303 183.778 74.3034 183.81 74.3037 183.842C72.7199 179.907 68.8697 177.128 64.3681 177.127C58.4534 177.127 53.6582 181.923 53.6582 187.837C53.6583 189.225 53.9225 190.496 54.4034 191.629C56.976 197.689 63.8203 197.947 63.8203 216.853C63.8203 219.606 63.8203 214.654 63.8203 216.853C46.042 216.853 31.6298 202.44 31.6294 184.662C31.6294 166.884 46.0418 152.471 63.8203 152.471H68.1373V152.466H119.273C123.093 152.466 126.76 154.083 129.147 157.066C133.328 162.292 136.533 167.157 138.895 171.172C141.084 174.891 147.638 174.927 149.805 171.195C152.089 167.26 155.123 162.505 158.97 157.394C161.359 154.219 165.154 152.466 169.127 152.466H188.141C215.926 152.466 231.157 139.144 238.934 129.542C242.958 124.574 248.674 121.181 255.067 121.181H269.421Z" fill="#FABFBA"/>
<path d="M144.576 167.651C144.576 131.794 115.979 102.711 80.6519 102.576C115.979 102.442 144.577 73.3571 144.577 37.4998C144.577 37.4997 144.577 37.4998 144.577 37.4998C144.577 73.4401 173.307 102.576 208.747 102.576C173.307 102.576 144.576 131.711 144.576 167.651Z" fill="#FF5F46"/>
<path d="M340.501 138V60.72H360.373C369.352 60.72 376.749 62.3024 382.563 65.4672C388.451 68.5584 392.794 73.0112 395.59 78.8256C398.461 84.5664 399.896 91.4848 399.896 99.5808C399.896 107.53 398.461 114.374 395.59 120.115C392.794 125.856 388.451 130.272 382.563 133.363C376.749 136.454 369.352 138 360.373 138H340.501ZM349.774 130.272H360.152C367.586 130.272 373.51 129.058 377.926 126.629C382.342 124.126 385.507 120.594 387.421 116.03C389.334 111.394 390.291 105.91 390.291 99.5808C390.291 93.104 389.334 87.5472 387.421 82.9104C385.507 78.2736 382.342 74.704 377.926 72.2016C373.51 69.6992 367.586 68.448 360.152 68.448H349.774V130.272ZM427.945 139.325C423.529 139.325 419.849 138.515 416.905 136.896C413.961 135.203 411.753 132.995 410.281 130.272C408.809 127.475 408.073 124.494 408.073 121.33C408.073 117.502 409.029 114.264 410.943 111.614C412.93 108.891 415.69 106.83 419.223 105.432C422.756 104.034 426.877 103.334 431.588 103.334H446.05C446.05 99.5808 445.609 96.4528 444.725 93.9504C443.842 91.448 442.407 89.5712 440.42 88.32C438.433 87.0688 435.783 86.4432 432.471 86.4432C429.159 86.4432 426.325 87.2896 423.97 88.9824C421.615 90.6016 420.143 93.0304 419.554 96.2688H410.06C410.501 92.4416 411.789 89.24 413.924 86.664C416.058 84.0144 418.745 82.0272 421.983 80.7024C425.295 79.304 428.791 78.6048 432.471 78.6048C437.697 78.6048 442.002 79.5616 445.388 81.4752C448.773 83.3152 451.276 85.928 452.895 89.3136C454.514 92.6256 455.324 96.5632 455.324 101.126V138H447.044L446.492 128.064C445.756 129.61 444.799 131.082 443.621 132.48C442.517 133.805 441.193 134.982 439.647 136.013C438.101 137.043 436.335 137.853 434.348 138.442C432.434 139.03 430.3 139.325 427.945 139.325ZM429.269 131.486C431.698 131.486 433.943 130.934 436.004 129.83C438.065 128.726 439.831 127.254 441.303 125.414C442.849 123.501 444.026 121.366 444.836 119.011C445.645 116.656 446.05 114.19 446.05 111.614V110.51H432.361C428.901 110.51 426.068 110.952 423.86 111.835C421.725 112.718 420.18 113.97 419.223 115.589C418.266 117.134 417.788 118.901 417.788 120.888C417.788 123.022 418.229 124.899 419.113 126.518C419.996 128.064 421.284 129.278 422.977 130.162C424.743 131.045 426.841 131.486 429.269 131.486ZM488.345 138C485.033 138 482.163 137.485 479.734 136.454C477.305 135.424 475.429 133.694 474.104 131.266C472.853 128.763 472.227 125.414 472.227 121.219V87.768H462.07V79.9296H472.227L473.441 65.4672H481.501V79.9296H497.95V87.768H481.501V121.219C481.501 124.678 482.2 127.034 483.598 128.285C484.997 129.462 487.462 130.051 490.995 130.051H497.729V138H488.345ZM525.467 139.325C521.051 139.325 517.371 138.515 514.427 136.896C511.483 135.203 509.275 132.995 507.803 130.272C506.331 127.475 505.595 124.494 505.595 121.33C505.595 117.502 506.552 114.264 508.466 111.614C510.453 108.891 513.213 106.83 516.746 105.432C520.279 104.034 524.4 103.334 529.111 103.334H543.573C543.573 99.5808 543.131 96.4528 542.248 93.9504C541.365 91.448 539.93 89.5712 537.943 88.32C535.955 87.0688 533.306 86.4432 529.994 86.4432C526.682 86.4432 523.848 87.2896 521.493 88.9824C519.138 90.6016 517.666 93.0304 517.077 96.2688H507.583C508.024 92.4416 509.312 89.24 511.447 86.664C513.581 84.0144 516.267 82.0272 519.506 80.7024C522.818 79.304 526.314 78.6048 529.994 78.6048C535.219 78.6048 539.525 79.5616 542.911 81.4752C546.296 83.3152 548.799 85.928 550.418 89.3136C552.037 92.6256 552.847 96.5632 552.847 101.126V138H544.567L544.015 128.064C543.279 129.61 542.322 131.082 541.144 132.48C540.04 133.805 538.715 134.982 537.17 136.013C535.624 137.043 533.858 137.853 531.871 138.442C529.957 139.03 527.823 139.325 525.467 139.325ZM526.792 131.486C529.221 131.486 531.466 130.934 533.527 129.83C535.587 128.726 537.354 127.254 538.826 125.414C540.371 123.501 541.549 121.366 542.359 119.011C543.168 116.656 543.573 114.19 543.573 111.614V110.51H529.883C526.424 110.51 523.591 110.952 521.383 111.835C519.248 112.718 517.703 113.97 516.746 115.589C515.789 117.134 515.311 118.901 515.311 120.888C515.311 123.022 515.752 124.899 516.635 126.518C517.519 128.064 518.807 129.278 520.499 130.162C522.266 131.045 524.363 131.486 526.792 131.486ZM593.781 139.325C590.248 139.325 587.194 138.81 584.618 137.779C582.115 136.675 579.981 135.314 578.214 133.694C576.522 132.075 575.123 130.493 574.019 128.947L573.246 138H564.856V58.512H574.13V89.0928C575.896 85.6336 578.509 83.0208 581.968 81.2544C585.427 79.488 589.291 78.6048 593.56 78.6048C598.859 78.6048 603.496 79.8928 607.47 82.4688C611.445 85.0448 614.536 88.6144 616.744 93.1776C618.952 97.6672 620.056 102.856 620.056 108.744C620.056 114.558 618.952 119.784 616.744 124.421C614.536 129.058 611.445 132.701 607.47 135.35C603.57 138 599.006 139.325 593.781 139.325ZM592.566 131.266C596.026 131.266 599.08 130.382 601.73 128.616C604.453 126.776 606.587 124.2 608.133 120.888C609.752 117.502 610.562 113.528 610.562 108.965C610.562 104.402 609.752 100.464 608.133 97.152C606.587 93.7664 604.453 91.1904 601.73 89.424C599.08 87.584 596.026 86.664 592.566 86.664C588.886 86.664 585.685 87.584 582.962 89.424C580.238 91.1904 578.141 93.7664 576.669 97.152C575.197 100.464 574.461 104.402 574.461 108.965C574.461 113.528 575.197 117.502 576.669 120.888C578.141 124.2 580.238 126.776 582.962 128.616C585.685 130.382 588.886 131.266 592.566 131.266ZM630.221 138V79.9296H638.611L639.273 90.528C640.598 87.8784 642.328 85.6704 644.462 83.904C646.597 82.1376 649.173 80.8128 652.19 79.9296C655.281 79.0464 658.741 78.6048 662.568 78.6048V88.32H656.827C654.619 88.32 652.485 88.6144 650.424 89.2032C648.363 89.792 646.486 90.7488 644.793 92.0736C643.174 93.3984 641.886 95.2016 640.929 97.4832C639.973 99.7648 639.494 102.635 639.494 106.094V138H630.221ZM670.809 138V79.9296H680.083V138H670.809ZM675.446 68.8896C673.606 68.8896 672.06 68.3008 670.809 67.1232C669.631 65.872 669.043 64.3264 669.043 62.4864C669.043 60.6464 669.631 59.1744 670.809 58.0704C672.06 56.8928 673.606 56.304 675.446 56.304C677.212 56.304 678.721 56.8928 679.972 58.0704C681.223 59.1744 681.849 60.6464 681.849 62.4864C681.849 64.3264 681.223 65.872 679.972 67.1232C678.721 68.3008 677.212 68.8896 675.446 68.8896ZM718.304 139.325C713.005 139.325 708.295 138.074 704.173 135.571C700.051 132.995 696.813 129.426 694.458 124.862C692.103 120.299 690.925 115 690.925 108.965C690.925 102.856 692.103 97.5568 694.458 93.0672C696.813 88.504 700.051 84.9712 704.173 82.4688C708.295 79.8928 713.005 78.6048 718.304 78.6048C724.928 78.6048 730.448 80.3712 734.864 83.904C739.354 87.4368 742.224 92.184 743.475 98.1456H733.981C733.171 94.4656 731.295 91.632 728.351 89.6448C725.48 87.584 722.095 86.5536 718.194 86.5536C714.808 86.5536 711.754 87.4 709.031 89.0928C706.381 90.7856 704.283 93.288 702.738 96.6C701.192 99.912 700.419 104.034 700.419 108.965C700.419 112.645 700.861 115.92 701.744 118.79C702.627 121.587 703.842 123.942 705.387 125.856C707.007 127.696 708.883 129.094 711.018 130.051C713.226 131.008 715.618 131.486 718.194 131.486C720.843 131.486 723.235 131.045 725.37 130.162C727.578 129.205 729.418 127.843 730.89 126.077C732.435 124.31 733.466 122.213 733.981 119.784H743.475C742.298 125.598 739.427 130.309 734.864 133.915C730.375 137.522 724.855 139.325 718.304 139.325ZM787.762 138L761.377 106.646L786.217 79.9296H797.588L769.215 109.958L769.325 103.334L799.575 138H787.762ZM753.649 138V58.512H762.922V138H753.649ZM823.817 139.325C818.592 139.325 814.249 138.552 810.79 137.006C807.405 135.387 804.829 133.179 803.062 130.382C801.296 127.512 800.229 124.2 799.861 120.446H809.355C809.649 122.434 810.312 124.274 811.342 125.966C812.446 127.586 814.029 128.91 816.089 129.941C818.15 130.971 820.763 131.486 823.928 131.486C826.43 131.486 828.565 131.118 830.331 130.382C832.097 129.573 833.422 128.469 834.305 127.07C835.262 125.672 835.741 124.053 835.741 122.213C835.741 119.784 835.189 117.907 834.085 116.582C833.054 115.184 831.509 114.154 829.448 113.491C827.461 112.755 824.958 112.203 821.941 111.835C818.702 111.394 815.832 110.768 813.329 109.958C810.827 109.149 808.693 108.082 806.926 106.757C805.233 105.432 803.945 103.776 803.062 101.789C802.179 99.8016 801.737 97.4464 801.737 94.7232C801.737 91.5584 802.584 88.7616 804.277 86.3328C805.969 83.904 808.361 82.0272 811.453 80.7024C814.617 79.304 818.334 78.6048 822.603 78.6048C828.859 78.6048 833.79 80.04 837.397 82.9104C841.077 85.7808 843.248 89.8656 843.91 95.1648H834.747C834.379 92.4416 833.128 90.3072 830.993 88.7616C828.859 87.216 826.025 86.4432 822.493 86.4432C818.739 86.4432 815.905 87.1424 813.992 88.5408C812.078 89.9392 811.121 91.7792 811.121 94.0608C811.121 95.7536 811.526 97.2992 812.336 98.6976C813.219 100.022 814.691 101.163 816.752 102.12C818.813 103.003 821.573 103.666 825.032 104.107C829.374 104.622 833.054 105.469 836.072 106.646C839.089 107.75 841.371 109.48 842.917 111.835C844.536 114.19 845.309 117.392 845.235 121.44C845.235 125.267 844.315 128.506 842.475 131.155C840.709 133.805 838.206 135.829 834.968 137.227C831.803 138.626 828.086 139.325 823.817 139.325ZM373.51 238.325C366.224 238.325 359.821 236.669 354.301 233.357C348.854 230.045 344.622 225.445 341.605 219.557C338.587 213.595 337.078 206.64 337.078 198.691C337.078 190.816 338.624 183.861 341.715 177.826C344.806 171.717 349.222 166.97 354.963 163.584C360.778 160.125 367.659 158.395 375.608 158.395C384.587 158.395 392.021 160.566 397.909 164.909C403.87 169.178 407.734 175.139 409.501 182.794H394.597C393.493 178.966 391.322 175.986 388.083 173.851C384.845 171.717 380.65 170.65 375.498 170.65C370.272 170.65 365.782 171.79 362.029 174.072C358.349 176.28 355.515 179.518 353.528 183.787C351.614 187.982 350.658 192.987 350.658 198.802C350.658 204.616 351.614 209.621 353.528 213.816C355.515 218.011 358.312 221.213 361.918 223.421C365.525 225.555 369.757 226.622 374.614 226.622C381.827 226.622 387.274 224.598 390.954 220.55C394.634 216.502 396.805 211.24 397.467 204.763H377.485V194.717H410.826V237H398.682L397.578 226.402C395.885 228.904 393.934 231.075 391.726 232.915C389.518 234.682 386.906 236.043 383.888 237C380.944 237.883 377.485 238.325 373.51 238.325ZM447.419 238.325C441.899 238.325 437.041 237.147 432.846 234.792C428.651 232.363 425.376 228.978 423.02 224.635C420.665 220.293 419.488 215.288 419.488 209.621C419.488 203.733 420.628 198.581 422.91 194.165C425.265 189.749 428.54 186.29 432.736 183.787C437.004 181.285 441.936 180.034 447.529 180.034C452.976 180.034 457.723 181.248 461.771 183.677C465.819 186.106 468.947 189.381 471.155 193.502C473.363 197.55 474.467 202.114 474.467 207.192C474.467 207.928 474.467 208.738 474.467 209.621C474.467 210.504 474.393 211.424 474.246 212.381H428.982V203.88H461.108C460.961 199.832 459.6 196.667 457.024 194.386C454.448 192.03 451.246 190.853 447.419 190.853C444.696 190.853 442.193 191.478 439.912 192.73C437.63 193.981 435.827 195.858 434.502 198.36C433.177 200.789 432.515 203.88 432.515 207.634V210.835C432.515 214.294 433.14 217.275 434.392 219.778C435.716 222.28 437.483 224.194 439.691 225.518C441.972 226.77 444.512 227.395 447.308 227.395C450.4 227.395 452.939 226.733 454.926 225.408C456.987 224.083 458.496 222.317 459.452 220.109H472.921C471.891 223.568 470.198 226.696 467.843 229.493C465.488 232.216 462.58 234.387 459.121 236.006C455.662 237.552 451.761 238.325 447.419 238.325ZM483.387 237V181.358H495.089L496.083 190.632C497.776 187.394 500.204 184.818 503.369 182.904C506.534 180.99 510.288 180.034 514.63 180.034C519.12 180.034 522.947 180.99 526.112 182.904C529.276 184.744 531.705 187.467 533.398 191.074C535.164 194.68 536.048 199.17 536.048 204.542V237H522.8V205.757C522.8 201.12 521.769 197.55 519.708 195.048C517.648 192.546 514.593 191.294 510.545 191.294C507.896 191.294 505.504 191.92 503.369 193.171C501.308 194.422 499.652 196.262 498.401 198.691C497.224 201.046 496.635 203.917 496.635 207.302V237H483.387ZM547.255 237V181.358H560.503V237H547.255ZM553.879 172.526C551.45 172.526 549.426 171.79 547.807 170.318C546.261 168.773 545.489 166.896 545.489 164.688C545.489 162.406 546.261 160.566 547.807 159.168C549.426 157.696 551.45 156.96 553.879 156.96C556.308 156.96 558.295 157.696 559.841 159.168C561.46 160.566 562.269 162.406 562.269 164.688C562.269 166.896 561.46 168.773 559.841 170.318C558.295 171.79 556.308 172.526 553.879 172.526ZM598.555 238.325C593.035 238.325 588.177 237.147 583.982 234.792C579.787 232.363 576.512 228.978 574.156 224.635C571.801 220.293 570.624 215.288 570.624 209.621C570.624 203.733 571.764 198.581 574.046 194.165C576.401 189.749 579.676 186.29 583.872 183.787C588.14 181.285 593.072 180.034 598.665 180.034C604.112 180.034 608.859 181.248 612.907 183.677C616.955 186.106 620.083 189.381 622.291 193.502C624.499 197.55 625.603 202.114 625.603 207.192C625.603 207.928 625.603 208.738 625.603 209.621C625.603 210.504 625.529 211.424 625.382 212.381H580.118V203.88H612.244C612.097 199.832 610.736 196.667 608.16 194.386C605.584 192.03 602.382 190.853 598.555 190.853C595.832 190.853 593.329 191.478 591.048 192.73C588.766 193.981 586.963 195.858 585.638 198.36C584.313 200.789 583.651 203.88 583.651 207.634V210.835C583.651 214.294 584.276 217.275 585.528 219.778C586.852 222.28 588.619 224.194 590.827 225.518C593.108 226.77 595.648 227.395 598.444 227.395C601.536 227.395 604.075 226.733 606.062 225.408C608.123 224.083 609.632 222.317 610.588 220.109H624.057C623.027 223.568 621.334 226.696 618.979 229.493C616.624 232.216 613.716 234.387 610.257 236.006C606.798 237.552 602.897 238.325 598.555 238.325Z" fill="#1B3139"/>
</svg>
