<svg xmlns="http://www.w3.org/2000/svg" viewBox="0 0 280 220" fill="none">
  <!-- Background glow -->
  <ellipse cx="140" cy="195" rx="100" ry="12" fill="#0891B2" opacity=".06"/>

  <!-- Shield body -->
  <path d="M140 38 L195 60 L195 120 C195 155, 165 178, 140 190 C115 178, 85 155, 85 120 L85 60 Z"
        fill="#0891B2" fill-opacity=".06" stroke="#0891B2" stroke-width="2.5" stroke-linejoin="round"/>

  <!-- Shield inner highlight -->
  <path d="M140 52 L183 70 L183 118 C183 146, 159 165, 140 175 C121 165, 97 146, 97 118 L97 70 Z"
        fill="#0891B2" fill-opacity=".04" stroke="#0891B2" stroke-width="1" opacity=".3" stroke-linejoin="round"/>

  <!-- Checkmark -->
  <path d="M118 115 L133 132 L165 96" stroke="#0891B2" stroke-width="5" fill="none" stroke-linecap="round" stroke-linejoin="round" opacity=".85"/>

  <!-- Quality bars (left side) -->
  <rect x="38" y="78" width="30" height="5" rx="2.5" fill="#0891B2" opacity=".2"/>
  <rect x="38" y="90" width="24" height="5" rx="2.5" fill="#0891B2" opacity=".15"/>
  <rect x="38" y="102" width="28" height="5" rx="2.5" fill="#0891B2" opacity=".25"/>
  <rect x="38" y="114" width="18" height="5" rx="2.5" fill="#0891B2" opacity=".12"/>

  <!-- Quality bars (right side) -->
  <rect x="212" y="78" width="30" height="5" rx="2.5" fill="#0891B2" opacity=".2"/>
  <rect x="216" y="90" width="24" height="5" rx="2.5" fill="#0891B2" opacity=".15"/>
  <rect x="214" y="102" width="28" height="5" rx="2.5" fill="#0891B2" opacity=".25"/>
  <rect x="220" y="114" width="18" height="5" rx="2.5" fill="#0891B2" opacity=".12"/>

  <!-- Small check icons next to bars -->
  <circle cx="33" cy="80" r="3" fill="#0891B2" opacity=".3"/>
  <circle cx="33" cy="92" r="3" fill="#0891B2" opacity=".2"/>
  <circle cx="33" cy="104" r="3" fill="#0891B2" opacity=".35"/>
  <circle cx="247" cy="80" r="3" fill="#0891B2" opacity=".3"/>
  <circle cx="247" cy="92" r="3" fill="#0891B2" opacity=".2"/>
  <circle cx="247" cy="104" r="3" fill="#0891B2" opacity=".35"/>

  <!-- Lock icon at top -->
  <rect x="133" y="55" width="14" height="12" rx="3" fill="#0891B2" opacity=".4"/>
  <path d="M136 55 L136 50 C136 46, 139 43, 140 43 C141 43, 144 46, 144 50 L144 55" stroke="#0891B2" stroke-width="1.5" fill="none" opacity=".4"/>

  <!-- Sparkles -->
  <path d="M60 150 L63 158 L60 166 L57 158Z" fill="#0891B2" opacity=".3"/>
  <path d="M54 158 L60 155 L66 158 L60 161Z" fill="#0891B2" opacity=".3"/>
  <path d="M220 150 L222 155 L220 160 L218 155Z" fill="#0891B2" opacity=".25"/>
  <path d="M216 155 L220 153 L224 155 L220 157Z" fill="#0891B2" opacity=".25"/>
</svg>
